<?xml version="1.0" ?><svg enable-background="new 0 0 515.91 728.5" id="Layer_1" version="1.1" viewBox="0 0 512.00003 512" space="preserve" xmlns="http://www.w3.org/2000/svg" cc="http://creativecommons.org/ns#" dc="http://purl.org/dc/elements/1.1/" inkscape="http://www.inkscape.org/namespaces/inkscape" rdf="http://www.w3.org/1999/02/22-rdf-syntax-ns#" sodipodi="http://sodipodi.sourceforge.net/DTD/sodipodi-0.dtd" svg="http://www.w3.org/2000/svg"><defs id="defs7"/><path d="M 357.875 6 C 316.17683 47.698166 310.42772 94.517928 313.84375 128.53125 C 315.94401 149.55683 321.52866 165.65814 324.3125 172.625 L 329.5 186.375 C 330.78207 190.52292 332.12492 195.75037 333.1875 201.90625 C 333.298 202.54715 333.39698 203.21585 333.5 203.875 C 339.24653 201.25238 345.90873 200.12871 351.96875 200.21875 C 358.68965 200.26202 366.18525 199.95016 373.28125 200.875 C 369.97778 177.33231 362.76867 161.26139 362.0625 159.71875 C 361.20192 157.84678 348.25278 127.97653 354.90625 92.15625 L 419.90625 157.15625 C 406.27573 159.6522 393.52084 159.37047 382.84375 157.9375 C 385.81199 165.83234 390.4557 180.30787 392.96875 198.8125 C 425.91149 200.21147 468.08085 192.04424 506 154.125 L 477.84375 125.96875 C 475.2794 128.5337 472.67645 130.88279 470.0625 133.09375 L 378.96875 42 C 381.19631 39.369052 383.4509 36.705948 386.03125 34.125 L 357.875 6 z M 369.34375 54.90625 L 457.03125 142.625 C 450.53738 146.72392 444.02392 149.8683 437.53125 152.28125 L 359.75 74.5 C 362.18696 67.997129 365.25443 61.44212 369.34375 54.90625 z M 285.46875 137.09375 C 254.16987 137.60674 216.30301 147.57119 181.9375 181.9375 C 144.01846 219.85675 135.83173 262.04241 137.25 294.96875 C 137.94229 311.85141 141.17301 326.24071 144.21875 336.4375 C 144.23675 336.4575 144.231 336.5075 144.25 336.5625 C 146.99865 345.65432 149.53211 351.37301 149.9375 352.25 C 150.45849 353.41497 155.65534 365.41884 158 382.8125 C 159.43287 393.65928 159.7238 406.63602 157.09375 420.46875 L 91.53125 354.90625 C 105.35358 352.26631 118.32707 352.55003 129.15625 354 C 128.11127 351.19906 126.83572 347.61241 125.46875 343.3125 L 125.125 342.125 C 122.99984 335.00614 120.56991 325.01501 118.96875 313.15625 C 86.041904 311.77327 43.883942 319.9595 6 357.84375 L 34.15625 386 C 36.602002 383.55405 39.0865 381.30621 41.59375 379.15625 L 132.8125 470.375 C 130.66974 472.88895 128.44576 475.36655 126 477.8125 L 154.15625 506 C 192.0931 468.06376 200.22532 425.86184 198.84375 392.9375 C 198.11917 376.08683 194.89154 361.6708 191.875 351.5 C 191.824 351.45 191.8305 351.44625 191.8125 351.40625 C 189.09606 342.24744 186.51524 336.45548 186.09375 335.5625 C 185.97515 335.27451 180.57941 323.14064 178.21875 305.125 C 176.81948 294.44721 176.50455 281.72073 179 268.125 L 229.84375 319 C 231.49888 319.03526 233.11787 319.13041 234.6875 319.3125 C 236.97952 315.26544 237.971 310.60907 239.6875 306.28125 L 183.84375 250.4375 C 186.2382 243.95963 189.40778 237.40812 193.5 230.90625 L 230.9375 268.3125 C 232.82107 263.21904 236.07952 258.3996 239.4375 254.3125 L 203 217.875 C 205.20276 215.25105 207.5134 212.6727 210.09375 210.09375 C 212.5569 207.6308 215.0432 205.38296 217.53125 203.25 L 254.03125 239.75 C 258.2716 236.20479 262.84052 233.1351 267.9375 231.125 L 230.46875 193.6875 C 236.92902 189.58858 243.46198 186.40145 249.90625 183.9375 L 306.125 240.15625 C 310.46924 238.32121 314.85654 236.34715 319.3125 234.90625 C 319.57226 233.70583 319.65465 232.44925 319.65625 231.15625 L 267.46875 178.96875 C 281.30128 176.3368 294.28067 176.65978 305.09375 178.09375 C 302.15911 170.23191 297.4816 155.72339 294.96875 137.21875 C 291.88251 137.08676 288.70648 137.03975 285.46875 137.09375 z M 73.96875 359.875 L 152.125 438 C 149.67935 444.45887 146.47462 450.97563 142.375 457.4375 L 54.5625 369.625 C 61.022772 365.52708 67.525879 362.33595 73.96875 359.875 z " id="path4-1" style="fill:#ffffff;fill-opacity:1" transform="translate(0,-1.5e-5)"/><path d="m 357.81136,212.1598 c -3.93074,0.0327 -7.90698,0.35339 -11.91791,0.97072 -2.32208,0.35775 -4.53249,0.82019 -6.65083,1.32191 -4.20125,0.9969 -7.48587,5.01938 -7.62167,9.33527 -0.0142,0.4908 -0.0403,1.1714 -0.0403,2.00359 0.0284,4.68673 -0.0208,12.88875 -0.0208,12.88875 -0.0109,0.24976 -0.0119,0.50936 -0.0414,0.76457 -0.3583,3.0365 -2.51045,5.41749 -5.26707,6.23659 0.28009,-0.0764 0.56563,-0.14724 0.84692,-0.22795 -8.85622,2.47807 -17.25425,5.92793 -25.07486,10.24599 -2.52877,1.36882 -5.73716,1.21285 -8.13811,-0.68169 -0.201,-0.15815 -0.39842,-0.34247 -0.57829,-0.51589 l -9.08809,-9.08876 c -0.35895,-0.35884 -0.75837,-0.78094 -1.23936,-1.23903 -3.1124,-2.96561 -8.25013,-3.55022 -11.93841,-1.34374 -5.54041,3.3179 -10.72328,7.30111 -15.42919,11.89731 l -0.0208,0.0218 -0.0622,0.0545 c -0.39538,0.39592 -0.80078,0.80166 -1.1979,1.19758 -2.75139,2.80854 -5.34573,5.83631 -7.74557,9.1084 -1.38955,1.89453 -2.61571,3.78798 -3.75919,5.63997 -2.26602,3.67565 -1.75799,8.85209 1.19801,12.00091 0.33637,0.35667 0.8165,0.85729 1.4045,1.44518 3.37559,3.32008 9.08821,9.12912 9.08821,9.12912 0.17254,0.18106 0.35753,0.35556 0.51633,0.55734 1.89378,2.40062 2.05139,5.60945 0.68168,8.13767 0.2897,-0.52571 0.58724,-1.04706 0.88804,-1.56951 -4.64537,8.10932 -8.34282,16.80324 -10.96769,25.90183 -0.84812,2.70492 -3.1977,4.80886 -6.19635,5.16333 -0.25446,0.0327 -0.51382,0.0327 -0.76425,0.0327 l -12.86801,0 c -0.50749,0 -1.092,0 -1.75569,0 -4.29756,0.10907 -8.33029,3.3288 -9.37714,7.49852 -1.57256,6.26168 -2.422,12.73386 -2.49932,19.31184 l 0,0.0218 0,0.0982 0,1.69494 c 0.0403,3.93086 0.35414,7.90644 0.97082,11.91693 0.35688,2.3221 0.82085,4.53402 1.32192,6.65106 0.99668,4.20244 5.01992,7.48653 9.33591,7.62177 0.49038,0 1.17217,0.0437 2.0035,0.0437 4.68802,-0.0327 12.88841,0.0218 12.88841,0.0218 0.25054,0 0.5099,0 0.76436,0.0437 2.99788,0.35338 5.34833,2.45733 6.19645,5.16552 0.0109,0.0327 0.0316,0.0654 0.0414,0.0982 2.53838,8.82154 6.06252,17.1719 10.43064,24.95183 -0.13317,-0.23778 -0.28216,-0.46464 -0.41316,-0.7024 1.3696,2.52931 1.21264,5.71631 -0.68157,8.11803 -0.15891,0.1996 -0.34204,0.39701 -0.51633,0.57698 l -9.10872,9.10947 c -0.35906,0.35886 -0.78182,0.75695 -1.23936,1.23904 -2.96526,3.11283 -3.5297,8.2282 -1.32192,11.91801 3.31658,5.53965 7.30057,10.72263 11.89719,15.43006 l 0,0.0218 0.0829,0.0654 c 0.39515,0.39592 0.80089,0.79947 1.19789,1.19868 2.80746,2.75073 5.83654,5.34549 9.10873,7.74501 1.89432,1.38955 3.78678,2.6155 5.63879,3.75964 3.67563,2.26536 8.83189,1.756 11.97986,-1.19868 0.35709,-0.33703 0.85793,-0.79621 1.44582,-1.383 l 9.12955,-9.11057 c 0.18171,-0.17234 0.37728,-0.35666 0.57817,-0.5159 2.40052,-1.89236 5.60945,-2.05159 8.13801,-0.6806 7.62907,4.21445 15.74876,7.60542 24.22814,10.05839 2.75641,0.8202 4.90868,3.20009 5.26708,6.23659 0.0305,0.25632 0.0371,0.5148 0.0403,0.76458 l 0,12.8691 c 0,0.50718 -0.0164,1.09069 0,1.75493 0.10362,4.29733 3.32848,8.31001 7.49755,9.35708 6.26265,1.57277 12.73462,2.44315 19.31238,2.51949 l 0.0207,0 0.10362,0 1.69364,0 c 3.93075,-0.0437 7.9071,-0.35338 11.91791,-0.97072 2.32219,-0.35664 4.53259,-0.8202 6.65094,-1.32191 4.20124,-0.99582 7.48587,-5.02047 7.62155,-9.33635 0.0142,-0.49081 0.0403,-1.1714 0.0403,-2.00252 -0.0284,-4.75761 0.0208,-12.88983 0.0208,-12.88983 0.0109,-0.24977 0.0109,-0.53007 0.0403,-0.78311 0.3584,-3.03868 2.51067,-5.39894 5.26707,-6.21805 -0.60109,0.17341 -1.2111,0.31302 -1.81763,0.47554 9.2252,-2.50097 17.95665,-6.05117 26.04568,-10.51321 2.52865,-1.37099 5.73716,-1.21285 8.1381,0.6806 0.20091,0.15924 0.39843,0.34247 0.57839,0.5159 l 9.0881,9.11057 c 0.35875,0.35775 0.75826,0.78093 1.23926,1.23793 3.1123,2.96561 8.25013,3.53059 11.93841,1.32302 5.5403,-3.31789 10.72329,-7.28038 15.42908,-11.87658 l 0,-0.0218 0.0829,-0.0872 c 0.39538,-0.39483 0.8008,-0.80165 1.19792,-1.19757 2.7515,-2.80854 5.3456,-5.83632 7.74557,-9.1084 1.38954,-1.89453 2.6157,-3.78799 3.75929,-5.63998 2.26592,-3.67565 1.73715,-8.83244 -1.21874,-11.97909 -0.33648,-0.35776 -0.79589,-0.85838 -1.38387,-1.44628 -3.39784,-3.34188 -9.08822,-9.12801 -9.08822,-9.12801 -0.17255,-0.18216 -0.35753,-0.37738 -0.51644,-0.57807 -1.89366,-2.40063 -2.05127,-5.60944 -0.68158,-8.13877 -0.22435,0.40683 -0.47086,0.81475 -0.70229,1.21941 4.85533,-8.55106 8.64975,-17.71726 11.25695,-27.32518 -0.16754,0.62605 -0.33637,1.25539 -0.51634,1.87817 0.81955,-2.75509 3.20064,-4.90812 6.23779,-5.26696 0.25446,-0.0327 0.51373,-0.0327 0.76424,-0.0327 l 12.86793,0 c 0.5076,0 1.092,0 1.75568,0 4.29756,-0.0982 8.33029,-3.30699 9.37724,-7.47672 1.57246,-6.26277 2.42189,-12.73495 2.49923,-19.31292 l 0,-0.0218 0,-0.0982 0,-1.69493 0,-0.0218 c -0.0403,-3.93196 -0.35416,-7.90753 -0.97082,-11.91911 -0.35689,-2.32209 -0.82087,-4.53293 -1.32194,-6.65106 -0.99666,-4.20135 -5.01991,-7.48652 -9.3359,-7.62067 -0.49049,0 -1.17217,-0.0437 -2.00349,-0.0437 -4.68804,0.0327 -12.88843,-0.0218 -12.88843,-0.0218 -0.25063,0 -0.50989,0 -0.76434,-0.0327 -3.03651,-0.35774 -5.41814,-2.51077 -6.23769,-5.26804 -2.60491,-9.05059 -6.25482,-17.59946 -10.78185,-25.54952 0.25337,0.44172 0.51895,0.87691 0.76424,1.32191 -1.36957,-2.52931 -1.21273,-5.73814 0.68158,-8.13876 0.15881,-0.20069 0.34194,-0.37738 0.51634,-0.55734 l 9.08811,-9.10948 c 0.35894,-0.35776 0.80241,-0.75804 1.25996,-1.23904 2.96528,-3.11175 3.52961,-8.24892 1.32193,-11.93764 -3.31658,-5.54074 -7.30068,-10.72373 -11.8973,-15.43006 l -0.0829,-0.0872 c -0.39528,-0.39591 -0.80101,-0.80056 -1.19802,-1.19758 -2.80734,-2.75182 -5.83663,-5.34549 -9.10883,-7.74503 -1.89421,-1.38953 -3.78668,-2.61656 -5.63867,-3.75962 -3.67542,-2.26646 -8.85273,-1.73746 -12.00059,1.21831 -0.35699,0.33702 -0.85784,0.79622 -1.44572,1.3841 -2.0108,1.97743 -9.12944,9.08767 -9.12944,9.08767 -0.18182,0.17342 -0.35676,0.35883 -0.55778,0.51698 -2.40028,1.89345 -5.60934,2.0516 -8.138,0.68169 0.68736,0.37956 1.36425,0.77984 2.04484,1.17577 -8.2161,-4.75326 -17.03241,-8.54123 -26.27288,-11.21452 -2.7564,-0.81912 -4.90867,-3.20011 -5.26696,-6.23768 -0.0305,-0.25414 -0.0371,-0.51373 -0.0414,-0.7635 l 0,-12.8691 c 0,-0.50718 0.0164,-1.09179 0,-1.75492 -0.10361,-4.29843 -3.32837,-8.33074 -7.49765,-9.3778 -6.26277,-1.57278 -12.73441,-2.42135 -19.31228,-2.49879 l -0.0207,0 -0.10362,0 -1.69363,0 z m 0.0414,69.89608 c 38.99125,-0.63369 72.89102,28.37224 77.55887,67.93391 4.7166,39.97505 -22.16597,76.81654 -61.67541,84.51902 l -5.70061,0.90964 c -42.19942,4.97903 -80.44943,-25.19832 -85.42845,-67.3973 -4.97902,-42.20005 25.19723,-80.44964 67.39675,-85.42865 2.63741,-0.31194 5.2494,-0.49409 7.84885,-0.53662 z" id="path8854-7-5" style="fill:#00a1f1;fill-opacity:1;fill-rule:nonzero;stroke:none"/></svg>